<?xml version="1.0" standalone="no"?><!DOCTYPE svg PUBLIC "-//W3C//DTD SVG 1.1//EN" "http://www.w3.org/Graphics/SVG/1.1/DTD/svg11.dtd"><svg t="1593306991535" class="icon" viewBox="0 0 1063 1024" version="1.1" xmlns="http://www.w3.org/2000/svg" p-id="3462" xmlns:xlink="http://www.w3.org/1999/xlink" width="207.6171875" height="200"><defs><style type="text/css"></style></defs><path d="M681.708904 0.024941a91.33348 91.33348 0 0 1 50.979146 29.529994c8.779188 9.97635 17.109439 20.476457 25.389809 30.926684 11.797033 14.814879 23.369599 29.779403 35.041928 44.718987l14.764997 18.980005c-11.747152 14.540529-25.738982 32.173727-40.079984 49.532575q-86.420128 104.626966-173.014841 209.079345c-4.264889 5.13782-8.430015 10.375404-12.794669 15.41346a18.481187 18.481187 0 0 1-33.021717-11.42292l-3.965598-99.164914-3.940659-98.516452q-1.945388-48.933994-3.915717-97.843048c-0.498817-12.221028-1.222103-24.466997-1.596216-36.712966-0.224468-7.482262 0-14.964524 0-21.997851 12.046442-2.494087 23.594067-3.940658 34.717697-7.083208 20.326812-5.71146 40.304452-12.645023 60.581382-18.55601C640.706107 4.090303 650.956806 2.319501 660.933156 0.024941zM402.944757 0.024941c34.168997 9.502473 68.437758 19.154591 102.606755 28.407655a218.955931 218.955931 0 0 0 22.022792 3.641368c0 12.470437 0.29929 25.314987 0 38.109655-0.399054 14.141475-1.546334 28.282951-2.070093 42.399485-1.097398 30.25328-1.895506 60.531501-2.967964 90.809722q-1.820684 51.502904-3.965599 103.005809c-1.097398 26.586971-2.494087 53.198884-3.566545 79.810796-0.399054 9.178242-4.589121 15.238874-12.794668 18.181897-7.257794 2.494087-14.964524 0.224468-20.700925-6.758977q-20.900452-24.940874-41.626319-50.23092-75.271557-90.784781-150.568055-181.644384c-12.021501-14.56547-23.544185-29.529995-35.740272-44.893573 16.810149-13.093959 29.40529-29.604817 41.800905-46.340143 7.482262-9.97635 14.490648-20.376694 22.446786-29.929049a295.748882 295.748882 0 0 1 24.940874-26.063213c10.973984-10.200817 24.791229-15.11417 39.157172-18.531069z m-326.725447 651.605269c-10.84928-27.883897-30.477748-49.881748-47.238015-73.775105-5.312406-7.482262-10.225758-15.388519-14.964524-23.319717-19.12965-31.600087-17.957429-63.324879 0.673404-94.550852C22.446786 446.466582 31.824555 433.8465 40.553861 420.802423l36.737907-54.869922a18.057193 18.057193 0 0 1 2.29456 0.623521l342.113966 112.782632c9.377769 3.092668 14.964524 9.97635 14.964525 18.082133s-5.212643 14.440766-14.26618 18.057193Q269.361437 576.383594 116.374117 637.239326c-12.969254 5.162761-26.312622 9.42765-40.279511 14.390884z m912.362105-286.495817c10.150936 23.519244 25.788864 42.574072 39.755753 62.701356 7.232853 10.425285 14.365943 20.950334 20.875511 31.824555 19.728231 32.971835 19.70329 66.043434-1.296925 98.46657-9.228123 14.241239-19.229414 28.008601-29.180822 41.800905-11.722211 16.236509-23.544185 32.423136-30.851861 51.67749a35.11675 35.11675 0 0 1-4.314771-1.14728q-169.947114-67.340359-339.844347-134.680719c-10.175877-4.040422-14.665234-10.27564-14.291121-19.204472 0.349172-8.454956 5.262524-14.116535 15.488283-17.458612q147.625032-49.582457 295.349828-98.890565c15.887337-5.287465 31.9742-9.97635 48.410236-14.964524zM248.560748 126.824343c13.14384 18.281661 27.609547 38.009892 41.626319 58.037414q79.436683 113.456035 158.599016 227.086656c1.845625 2.643733 3.71619 5.287465 5.387229 8.030961a18.156956 18.156956 0 0 1-20.202108 27.260375q-116.199531-28.781768-232.374121-57.613418c-28.682005-7.108149-57.36401-14.091594-86.021074-21.449152-12.245969-3.14255-24.26747-7.083208-36.887552-10.799398a201.023443 201.023443 0 0 0 3.840894-22.446787c1.222103-20.152226 1.371748-40.354334 2.693615-60.506559a428.409389 428.409389 0 0 1 5.262524-51.103851c4.589121-24.292411 19.329177-42.399485 41.551496-52.849712 17.358848-8.130725 35.640509-14.191357 53.597938-20.800688 20.501398-7.656848 41.152442-14.964524 62.925824-22.8209z m568.327692-1.646097c24.766288 14.490648 51.802195 20.850571 77.890349 29.70458 16.760267 5.686519 33.271126 11.896797 47.986241 22.222319 20.127285 14.041712 30.153516 34.019352 32.971835 57.538596 1.99527 16.585681 2.494087 33.39583 2.967964 50.131156 0.698344 23.619007 0.27435 47.38766 6.384864 70.433028a17.209203 17.209203 0 0 1 0 3.4169c-32.423136 8.105784-64.846272 16.286391-97.119763 24.242529q-79.162333 19.503763-158.374548 38.733177l-96.820473 23.619007c-9.97635 2.494087-16.959794 0.324231-21.773382-6.634272s-4.688884-13.966889 1.371748-22.671254Q700.838554 289.014846 789.553242 162.140621c8.704365-12.470437 18.007311-24.491938 27.434961-37.08708z m0 0" fill="#ffffff" p-id="3463"></path><path d="M79.810796 661.806087l14.016771-4.065363q216.012908-62.352185 432.100639-124.829073a23.818534 23.818534 0 0 1 12.470437-0.224468q206.66008 59.209634 413.145575 118.918086c10.874221 3.14255 21.449151 7.482262 32.423136 11.273275-9.502473 34.218879-4.28983 69.285747-5.811224 104.003444a200.524625 200.524625 0 0 1-3.267255 29.205763c-6.110514 31.300797-26.636853 50.056334-54.645454 61.155023q-30.353043 11.99656-61.579017 21.499033c-34.917223 10.599871-61.828426 31.350678-82.75382 61.35455a674.326405 674.326405 0 0 1-41.701141 54.096755c-23.868416 27.759193-54.321223 35.565686-89.038919 25.763922q-31.40056-8.928833-62.352185-19.354118a149.645243 149.645243 0 0 0-95.224256-0.997635q-34.767578 11.098689-70.083855 20.276931c-37.411311 9.577296-68.587403-1.745861-92.854874-31.67491-13.368308-16.485918-25.888627-33.745002-38.408945-50.929264-16.56074-22.771018-34.917223-43.37218-61.878308-53.747583-16.685445-6.409805-33.695121-11.946679-50.405506-18.306602-13.69254-5.187702-27.434961-10.325522-40.603743-16.660503-27.759193-13.318427-43.09783-36.214149-46.414966-66.891424-1.695979-15.787573-2.194797-31.749732-2.494087-47.66201-0.399054-23.943239 0.723285-47.9613-4.863471-72.178889z m0 0" fill="#ffffff" p-id="3464"></path></svg>