<?xml version="1.0" standalone="no"?><!DOCTYPE svg PUBLIC "-//W3C//DTD SVG 1.1//EN" "http://www.w3.org/Graphics/SVG/1.1/DTD/svg11.dtd"><svg t="1593307007067" class="icon" viewBox="0 0 2641 1024" version="1.1" xmlns="http://www.w3.org/2000/svg" p-id="3802" xmlns:xlink="http://www.w3.org/1999/xlink" width="515.8203125" height="200"><defs><style type="text/css"></style></defs><path d="M2498.12992 826.71616c0 1.85344 0 3.70688-3.70688 5.56032 0 7.40352-5.55008 11.1104-11.1104 11.1104H2314.8544c-5.55008-1.85344-9.25696-5.56032-9.25696-11.1104V652.6976c0-11.1104 5.56032-18.51392 16.66048-16.66048h53.68832c5.56032 0 5.56032 0 5.56032-5.55008v-37.02784c0-5.56032 0-5.56032 5.55008-5.56032h27.77088c5.55008 0 5.55008 0 5.55008 5.56032v37.02784c0 5.55008 0 5.55008 5.56032 5.55008h57.38496c11.1104 0 14.81728 3.70688 14.81728 14.80704v175.872z m-122.19392-11.10016c3.70688 0 5.56032-1.85344 3.70688-3.70688v-55.54176c0-1.8432 0-3.69664-3.70688-3.69664h-25.9072c-3.70688 0-3.70688 0-3.70688 5.55008v53.68832c0 1.8432 0 3.70688 3.69664 3.70688h25.91744z m0-90.71616c3.70688 0 5.56032 0 3.70688-5.55008v-48.13824c0-5.55008 0-5.55008-5.55008-5.55008h-24.064c-3.70688 0-3.70688 1.8432-3.70688 5.55008v49.98144c0 1.85344 0 3.70688 3.69664 3.70688h25.91744z m79.60576 59.2384c0-9.25696-1.8432-18.51392-1.8432-27.77088 0-1.8432 0-3.69664-3.70688-3.69664h-25.91744c-1.8432 0-3.70688 0-3.70688 3.69664v55.54176c0 3.70688 1.85344 3.70688 3.70688 3.70688h25.91744c5.55008 0 5.55008-1.85344 5.55008-5.56032v-25.9072z m-5.55008-59.2384c3.70688 0 5.55008 0 5.55008-5.55008v-51.84512c0-1.8432 0-3.69664-3.69664-3.69664h-25.91744c-5.56032 0-5.56032 0-5.56032 5.55008v51.83488c0 3.70688 0 3.70688 3.70688 3.70688h25.91744z m-257.3312-120.33024v18.50368c0 5.56032 0 5.56032-5.55008 5.56032h-114.7904c-9.24672 0-9.24672 0-11.10016 7.40352a248.84224 248.84224 0 0 1-22.2208 44.43136c-1.8432 1.8432-3.69664 3.70688-3.69664 7.40352h129.5872c5.56032 0 9.25696 3.70688 9.25696 9.25696v135.14752c-1.8432 5.55008-5.55008 9.25696-11.1104 9.25696h-170.31168c-5.56032 0-11.1104-3.70688-11.1104-11.1104v-75.89888c0-1.85344 1.8432-3.70688 0-5.56032-14.80704 12.96384-27.77088 25.91744-42.57792 37.02784l-31.47776-31.46752c5.56032-3.70688 9.25696-5.56032 12.96384-9.25696 25.9072-18.51392 51.83488-40.73472 70.3488-68.5056 7.40352-12.9536 14.80704-25.9072 20.36736-40.72448 1.8432-3.70688 1.8432-5.55008 1.8432-7.40352h-77.75232c-5.55008 0-5.55008 0-5.55008-5.56032v-22.21056c0-1.8432 1.8432-3.70688 3.69664-3.70688h251.78112c7.40352 0 7.40352 0 7.40352 7.41376z m-66.64192 112.92672h-98.11968c-5.56032 0-5.56032 0-5.56032 5.55008v87.00928c0 5.56032 0 5.56032 5.56032 5.56032h98.11968c5.55008 0 5.55008 0 5.55008-5.56032V723.0464c0-5.55008 0-5.55008-5.55008-5.55008z m-570.20416-3.70688c0 20.36736-1.8432 38.88128 0 59.24864 0 11.10016-5.55008 16.66048-16.66048 16.66048h-85.15584c-1.85344-1.85344-3.70688 0-3.70688 1.8432v53.68832c0 5.56032 0 5.56032-5.55008 5.56032h-33.3312c-1.8432 0-3.69664 0-3.69664-3.70688v-49.98144c0-9.25696 0-7.40352-7.40352-7.40352h-83.31264c-7.40352-1.85344-11.1104-5.56032-11.1104-12.96384V643.44064c0-11.1104 3.70688-14.80704 14.81728-14.80704h79.60576c7.40352 0 7.40352 0 7.40352-9.25696v-29.62432c0-5.55008 0-5.55008 5.55008-5.55008h31.47776c5.55008 0 5.55008 0 5.55008 5.55008v33.32096c0 5.56032 0 5.56032 5.55008 5.56032h83.31264c3.69664 0 7.40352 0 9.25696 1.8432 5.55008 3.70688 7.40352 7.41376 7.40352 12.96384v70.3488z m-146.24768-49.98144c0-5.56032 0-5.56032-3.70688-5.56032h-51.83488c-3.70688 0-5.56032 0-5.56032 3.70688v94.4128c0 3.70688 1.85344 3.70688 5.56032 3.70688h51.83488c3.70688 0 3.70688 0 3.70688-5.55008v-90.7264z m103.66976 90.71616v-90.7264c0-5.55008-1.85344-5.55008-5.56032-5.55008h-51.83488c-3.69664 0-5.55008 0-5.55008 3.70688v94.4128c0 3.70688 1.8432 3.70688 5.55008 3.70688h51.83488c5.56032 0 5.56032 0 5.56032-5.55008z m349.9008 72.192c1.8432 14.81728-5.56032 16.67072-14.81728 18.51392h-220.30336c-5.55008 0-11.1104-5.55008-11.1104-11.10016V608.256c0-7.40352 3.70688-11.1104 11.1104-11.1104h225.85344c5.56032 0 9.25696 3.70688 9.25696 9.25696v220.30336z m-38.88128-194.38592c0-7.40352 1.8432-7.40352-7.40352-7.40352h-157.36832c-3.69664 0-3.69664 1.85344-3.69664 3.70688v181.42208c0 5.56032 0 5.56032 5.55008 5.56032h161.06496c3.70688 0 3.70688-1.85344 3.70688-3.70688v-92.5696c0-29.61408 0-57.38496-1.85344-87.00928z m475.78112 105.5232c0 9.25696-1.8432 18.51392-3.70688 25.92768a277.98528 277.98528 0 0 1-27.76064 77.75232c-1.85344 5.55008-1.85344 5.55008-7.41376 3.69664-11.10016-3.69664-24.064-9.25696-35.1744-12.9536v-1.85344c18.51392-31.46752 31.47776-62.94528 40.73472-98.11968v-3.69664c1.8432-3.70688 3.69664-1.85344 5.55008-1.85344 9.25696 1.8432 16.66048 3.69664 24.064 5.55008 3.70688 0 3.70688 1.8432 3.70688 5.55008z m-7.40352-92.5696c-1.85344 1.86368-3.70688 1.86368-5.56032 0-16.66048-12.9536-31.46752-24.064-48.128-35.16416 11.1104-9.25696 20.36736-20.36736 29.62432-29.62432a7589.20192 7589.20192 0 0 0 46.2848 40.73472c0 1.8432 0 1.8432-1.85344 3.69664-7.41376 7.40352-14.81728 12.96384-20.3776 20.36736z m-35.1744 55.552l-38.88128-27.77088c9.25696-9.25696 16.66048-18.51392 25.91744-27.77088 3.70688-1.8432 3.70688 0 5.56032 1.8432 11.10016 9.2672 20.35712 18.52416 31.46752 27.78112 5.55008 3.69664 9.25696 9.25696 14.80704 12.9536-3.69664 5.56032-9.25696 9.25696-12.9536 12.96384-3.70688 3.69664-5.55008 9.25696-11.1104 9.25696-3.69664 0-7.40352-5.56032-14.80704-9.25696z m-444.3136 55.53152c-5.55008 5.56032-9.25696 11.1104-14.80704 16.67072 1.8432 1.8432 1.8432 1.8432 3.69664 1.8432s1.85344 1.85344 1.85344 3.70688v22.2208c0 3.69664-1.8432 3.69664-3.70688 3.69664h-124.03712c-1.8432 0-1.8432-1.8432-1.8432-3.70688v-24.064c0-3.69664 1.8432-3.69664 3.69664-3.69664h37.02784c5.55008-1.85344 5.55008-1.85344 5.55008-5.56032v-27.77088c0-5.55008 0-5.55008-5.55008-5.55008h-35.1744c-5.55008 0-5.55008 0-5.55008-5.55008v-20.3776c0-5.55008 0-5.55008 5.55008-5.55008h35.1744c5.55008 0 5.55008 0 5.55008-5.55008v-14.80704c0-5.56032 0-5.56032-5.55008-5.56032h-37.02784a3.98336 3.98336 0 0 1-3.69664-3.69664v-22.2208c0-1.8432 0-3.69664 1.8432-3.69664h122.19392c5.55008 0 5.55008 0 5.55008 5.55008v16.66048c0 5.56032 0 5.56032-5.55008 5.56032h-37.02784c-5.56032 0-5.56032 0-5.56032 5.55008v14.80704c0 1.85344 1.85344 3.70688 5.56032 3.70688h42.57792c3.70688 0 3.70688 1.8432 3.70688 3.69664v22.2208c0 1.8432-1.85344 1.8432-3.70688 1.8432-3.70688 0-9.25696 0-12.96384 1.86368 7.41376 7.40352 14.81728 12.9536 22.2208 27.76064z m-29.62432 7.41376c-5.55008-5.56032-11.10016-9.25696-16.66048-14.81728-3.69664-3.69664-3.69664-3.69664 0-7.40352 3.70688-5.55008 7.40352-9.25696 11.1104-14.80704h-16.66048c-3.70688 0-3.70688 1.8432-3.70688 5.55008v20.36736c0 3.69664-1.8432 9.25696 0 11.1104 1.85344 3.69664 7.40352 1.8432 11.1104 1.8432 5.55008 0 11.1104 0 14.80704-1.8432z m109.23008-283.24864c0 9.25696-1.8432 12.9536-12.96384 12.9536H1800.192c-18.50368 0-33.32096-7.40352-44.43136-22.2208-33.32096-44.42112-68.49536-87.00928-101.81632-131.44064-1.8432-1.8432-1.8432-5.55008-3.70688-7.40352-1.8432 0-1.8432 1.85344-3.69664 1.85344v144.40448c0 12.9536-1.85344 16.66048-14.81728 16.66048h-77.75232c-9.25696 0-12.9536-3.70688-12.9536-12.96384v-257.3312c0-9.25696 3.69664-12.9536 12.9536-12.9536 29.62432 0 57.3952-1.8432 87.00928 0 7.41376 1.8432 16.67072 5.55008 20.3776 11.1104 38.87104 48.128 77.74208 96.256 114.76992 144.39424 1.8432 3.70688 5.56032 5.56032 7.40352 9.25696 1.85344-1.8432 1.85344-1.8432 3.70688-1.8432V228.74112c0-11.1104 3.69664-14.80704 14.80704-14.80704h79.60576c12.96384-1.85344 14.81728 3.69664 14.81728 14.80704 0 83.31264 0 166.61504-3.70688 251.78112z m281.3952-264.74496c55.54176 0 96.26624 33.3312 109.23008 87.01952 14.80704 53.68832-25.91744 118.4768-81.4592 125.88032-44.43136 5.56032-90.71616 3.70688-135.14752 5.56032-20.35712 1.8432-20.35712 0-20.35712 20.35712v29.62432c0 5.56032-1.85344 9.25696-9.25696 9.25696h-87.00928c-11.1104 0-11.1104-5.55008-11.1104-12.9536V228.75136c0-11.1104 1.8432-14.80704 14.80704-14.80704 74.05568 1.8432 146.25792 0 220.30336 1.8432z m-22.2208 66.65216c-11.10016-2.46784-28.99968-3.70688-53.67808-3.70688h-42.57792c-5.56032 0-9.25696 1.85344-9.25696 9.25696v74.05568c0 5.55008 1.8432 9.25696 9.25696 9.25696 27.76064-1.8432 55.53152 0 83.3024-1.8432 22.2208-1.86368 38.88128-18.52416 42.57792-37.03808 3.70688-24.064-5.55008-44.43136-29.61408-49.98144z m481.34144 198.0928c1.85344 12.9536-3.69664 14.80704-14.80704 14.80704h-75.89888v1.8432c-38.88128-3.6864-77.76256-1.8432-116.6336-9.24672-70.3488-12.96384-127.744-75.90912-114.7904-157.36832 7.41376-48.128 35.18464-81.44896 79.616-101.81632 25.9072-11.1104 51.83488-16.66048 79.60576-16.66048h149.95456c11.1104 0 12.9536 3.69664 12.9536 14.80704 0 12.96384-1.8432 24.064 0 35.1744 1.85344 14.81728-1.8432 18.51392-16.66048 18.51392h-120.33024c-35.1744 0-61.09184 14.80704-74.05568 46.2848-20.36736 46.2848 14.81728 101.81632 66.65216 101.81632h129.5872c11.1104-1.8432 14.80704 1.85344 14.80704 12.96384a136.76544 136.76544 0 0 0 0 38.88128z m-1153.35168-51.84512c11.10016 0 16.66048 1.85344 18.51392 12.96384v40.72448c0 7.41376-3.70688 11.1104-11.1104 11.1104-59.24864 0-118.4768 1.8432-177.72544-1.8432-79.60576-5.56032-138.8544-68.5056-137.00096-144.40448 1.85344-55.54176 48.128-111.08352 103.68-125.89056 11.10016-3.70688 24.064-9.25696 37.0176-9.25696h170.32192c9.25696 0 12.96384 1.8432 12.96384 12.9536v38.88128c0 11.1104-3.70688 14.80704-14.81728 14.80704h-122.18368c-33.32096 1.85344-59.2384 14.81728-74.04544 46.2848-20.3776 48.128 14.80704 103.66976 66.64192 103.66976h127.744z" fill="#ffffff" p-id="3803"></path><path d="M681.728 0c20.23424 4.31104 37.40672 14.0288 50.9952 29.5424 8.78592 10.0352 17.1008 20.48 25.40544 30.9248 11.78624 14.81728 23.36768 29.7984 35.03104 44.72832 4.6592 5.95968 9.30816 11.95008 14.76608 18.98496-11.74528 14.5408-25.74336 32.17408-40.0896 49.54112-57.61024 69.74464-115.32288 139.40736-173.0048 209.1008-4.25984 5.14048-8.42752 10.36288-12.8 15.4112-5.62176 6.48192-13.25056 8.704-20.3264 6.15424-7.95648-2.8672-12.34944-8.87808-12.6976-17.58208-1.34144-33.05472-2.6624-66.10944-3.97312-99.16416l-3.93216-98.5088c-1.30048-32.6144-2.58048-65.2288-3.90144-97.85344-0.50176-12.2368-1.20832-24.45312-1.59744-36.68992-0.23552-7.44448-0.04096-14.8992-0.04096-22.016 12.04224-2.39616 23.59296-3.9424 34.69312-7.0656 20.3264-5.7344 40.31488-12.63616 60.59008-18.55488C640.72704 4.06528 650.92608 2.28352 660.992 0h20.74624zM402.944 0c34.2016 9.51296 68.37248 19.1488 102.62528 28.42624 6.79936 1.8432 13.96736 2.34496 22.03648 3.6352 0 12.52352 0.28672 25.31328-0.07168 38.0928-0.4096 14.16192-1.56672 28.29312-2.07872 42.45504-1.09568 30.26944-1.90464 60.54912-2.9696 90.81856-1.2288 34.33472-2.56 68.67968-3.96288 103.0144-1.09568 26.60352-2.41664 53.1968-3.584 79.80032-0.38912 9.1648-4.57728 15.23712-12.8 18.176-7.24992 2.59072-14.86848 0.22528-20.69504-6.7584-13.93664-16.71168-27.77088-33.49504-41.63584-50.24768-50.13504-60.54912-100.32128-121.04704-150.36416-181.67808-12.02176-14.57152-23.552-29.5424-35.7376-44.8512 16.82432-13.1072 29.42976-29.62432 41.80992-46.35648 7.424-10.0352 14.4896-20.3776 22.528-29.91104a295.38304 295.38304 0 0 1 24.9856-26.09152C353.9968 8.35584 367.8208 3.4304 382.18752 0h20.74624zM76.09344 651.63264c-10.83392-27.86304-30.47424-49.88928-47.23712-73.76896-5.31456-7.56736-10.24-15.4112-15.02208-23.31648-19.12832-31.61088-17.96096-63.32416 0.65536-94.54592 8.02816-13.4656 17.32608-26.17344 26.0608-39.2192l36.7616-54.91712c-0.45056-0.12288 0.94208 0.18432 2.29376 0.63488 114.04288 37.5808 228.096 75.18208 342.12864 112.7936 9.39008 3.09248 14.87872 9.86112 14.90944 18.08384 0.02048 7.84384-5.21216 14.4384-14.27456 18.05312-101.9904 40.62208-203.96032 81.3056-305.99168 121.82528-12.97408 5.15072-26.3168 9.4208-40.28416 14.37696z m912.5376-286.5152c10.14784 23.53152 25.78432 42.5984 39.76192 62.72 7.23968 10.41408 14.36672 20.95104 20.86912 31.82592 19.72224 32.99328 19.712 66.048-1.28 98.46784-9.23648 14.25408-19.23072 28.02688-29.184 41.79968-11.7248 16.2304-23.552 32.36864-30.86336 51.68128-1.56672-0.4096-3.00032-0.63488-4.31104-1.15712A790699.5712 790699.5712 0 0 1 643.77856 515.6864c-10.1888-4.0448-14.67392-10.28096-14.29504-19.21024 0.3584-8.43776 5.25312-14.11072 15.49312-17.54112 98.4064-32.94208 196.79232-65.8944 295.23968-98.7136 15.872-5.29408 31.96928-9.97376 48.41472-15.08352zM248.56576 126.80192c13.13792 18.28864 27.60704 38.00064 41.63584 58.03008 52.9408 75.64288 105.74848 151.38816 158.59712 227.10272 1.8432 2.64192 3.71712 5.29408 5.40672 8.02816 4.31104 6.9632 3.95264 13.8752-0.70656 20.52096-4.38272 6.26688-11.33568 8.7552-19.39456 6.7584-77.4656-19.17952-154.9312-38.4-232.3968-57.62048-28.672-7.1168-57.3952-14.10048-86.016-21.4528-12.22656-3.14368-24.2688-7.0656-36.89472-10.78272 1.30048-7.35232 3.35872-14.82752 3.81952-22.40512 1.2288-20.15232 1.39264-40.35584 2.7136-60.49792 1.1264-17.1008 2.0992-34.34496 5.26336-51.12832 4.58752-24.28928 19.33312-42.30144 41.55392-52.8384 17.24416-8.192 35.5328-14.22336 53.48352-20.89984 20.51072-7.63904 41.1648-14.9504 62.93504-22.81472z m568.34048-1.6384c24.76032 14.49984 51.80416 20.85888 77.89568 29.696 16.77312 5.69344 33.28 11.91936 47.95392 22.14912 20.13184 14.0288 30.1568 34.02752 32.99328 57.53856 1.9968 16.5888 2.4576 33.40288 2.94912 50.13504 0.70656 23.61344 0.26624 47.3088 6.41024 70.42048 0.2048 0.768 0.02048 1.6384 0.02048 3.4304-32.41984 8.0896-64.74752 16.2816-97.1264 24.23808-52.7872 12.98432-105.60512 25.84576-158.40256 38.73792l-96.80896 23.63392c-9.96352 2.43712-16.96768 0.33792-21.77024-6.63552-4.94592-7.15776-4.67968-13.9776 1.3824-22.66112 59.02336-84.56192 118.04672-169.1136 177.18272-253.58336 8.72448-12.45184 18.0224-24.50432 27.32032-37.08928z" fill="#ffffff" p-id="3804"></path><path d="M79.79008 661.8112l14.01856-4.06528c144.03584-41.65632 288.0512-83.34336 432.128-124.83584 3.8912-1.1264 8.62208-1.3312 12.47232-0.23552 137.76896 39.48544 275.48672 79.13472 413.16352 118.92736 10.88512 3.14368 21.44256 7.40352 32.53248 11.27424-9.5232 34.21184-4.28032 69.28384-5.8368 104.00768a200.02816 200.02816 0 0 1-3.25632 29.19424c-6.0928 31.30368-26.63424 50.0736-54.6304 61.16352a802.4064 802.4064 0 0 1-61.58336 21.49376c-34.88768 10.61888-61.82912 31.34464-82.7392 61.35808a674.31424 674.31424 0 0 1-41.70752 54.09792c-23.86944 27.77088-54.3232 35.56352-89.0368 25.76384a1353.28768 1353.28768 0 0 1-62.3104-19.34336c-31.71328-10.63936-63.25248-11.10016-95.21152-1.00352-23.1936 7.3216-46.55104 14.2336-70.0928 20.2752-37.41696 9.58464-68.57728-1.75104-92.86656-31.68256-13.38368-16.49664-25.88672-33.75104-38.4-50.95424-16.56832-22.77376-34.9696-43.3664-61.88032-53.73952-16.68096-6.44096-33.6896-11.96032-50.41152-18.29888-13.6704-5.19168-27.4432-10.33216-40.61184-16.66048-27.7504-13.33248-43.08992-36.22912-46.39744-66.90816-1.71008-15.79008-2.21184-31.75424-2.47808-47.65696-0.4096-23.94112 0.72704-47.95392-4.864-72.17152z" fill="#ffffff" p-id="3805"></path></svg>